<?xml version="1.0" standalone="no"?><svg xmlns="http://www.w3.org/2000/svg" viewBox="0 0 1440 320"><path fill="#0099ff" fill-opacity="10" d="M0,224L34.3,197.3C68.6,171,137,117,206,106.7C274.3,96,343,128,411,165.3C480,203,549,245,617,250.7C685.7,256,754,224,823,218.7C891.4,213,960,235,1029,213.3C1097.1,192,1166,128,1234,106.7C1302.9,85,1371,107,1406,117.3L1440,128L1440,320L1405.7,320C1371.4,320,1303,320,1234,320C1165.7,320,1097,320,1029,320C960,320,891,320,823,320C754.3,320,686,320,617,320C548.6,320,480,320,411,320C342.9,320,274,320,206,320C137.1,320,69,320,34,320L0,320Z"></path></svg>